# xmcd
#
# Track frame offsets: 
#        150
#        14358
#        28703
#        42736
#        55341
#        64488
#        74617
#        86765
#        93978
#        101208
#        116283
#        128877
#        144371
#        180023
#        200685
#
# Disc length: 2894 seconds
#
# Revision: 0
# Processed by: cddbd v1.5.2PL0 Copyright (c) Steve Scherf et al.
# Submitted via: ExactAudioCopy v0.99pb4
#
DISCID=da0b4c0f
DTITLE=Willie Nelson - Souvenirs [CD1]
DYEAR=2009
DGENRE=Country
TTITLE0=Good Hearted Woman
TTITLE1=Blue Skies
TTITLE2=Georgia On My Mind
TTITLE3=Blue Eyes Crying In The Rain
TTITLE4=On The Road Again
TTITLE5=Mama Don't Let Your Babies Grow Up To Be Cowboys
TTITLE6=City Of New Orleans
TTITLE7=To All The Girls I've Loved Before
TTITLE8=Luckenbach, Texas
TTITLE9=Whiskey River
TTITLE10=Seven Spanish Angels
TTITLE11=Stardust
TTITLE12=Funny How Time Slips Away
TTITLE13=Pancho and Lefty
TTITLE14=Always On My Mind
EXTD=Greatest Hits In Concert
EXTT0=
EXTT1=
EXTT2=
EXTT3=
EXTT4=
EXTT5=
EXTT6=
EXTT7=
EXTT8=
EXTT9=
EXTT10=
EXTT11=
EXTT12=
EXTT13=
EXTT14=
PLAYORDER=
